<?xml version="1.0" encoding="UTF-8" standalone="no"?>
<!-- Created with Inkscape (http://www.inkscape.org/) -->

<svg
   xmlns:dc="http://purl.org/dc/elements/1.1/"
   xmlns:cc="http://creativecommons.org/ns#"
   xmlns:rdf="http://www.w3.org/1999/02/22-rdf-syntax-ns#"
   xmlns:svg="http://www.w3.org/2000/svg"
   xmlns="http://www.w3.org/2000/svg"
   xmlns:sodipodi="http://sodipodi.sourceforge.net/DTD/sodipodi-0.dtd"
   xmlns:inkscape="http://www.inkscape.org/namespaces/inkscape"
   width="24pt"
   height="24pt"
   viewBox="0 0 30 30"
   id="svg2"
   version="1.1"
   inkscape:version="0.91 r13725"
   sodipodi:docname="jacktray-stopped.svg">
  <defs
     id="defs4">
    <filter
       inkscape:collect="always"
       style="color-interpolation-filters:sRGB"
       id="filter5575"
       x="-0.032527485"
       width="1.065055"
       y="-0.032273511"
       height="1.064547">
      <feGaussianBlur
         inkscape:collect="always"
         stdDeviation="0.26625179"
         id="feGaussianBlur5577" />
    </filter>
    <filter
       inkscape:collect="always"
       style="color-interpolation-filters:sRGB"
       id="filter5559"
       x="-0.065728333"
       width="1.1314567"
       y="-0.063897525"
       height="1.1277951">
      <feGaussianBlur
         inkscape:collect="always"
         stdDeviation="0.23895869"
         id="feGaussianBlur5561" />
    </filter>
  </defs>
  <sodipodi:namedview
     id="base"
     pagecolor="#ffffff"
     bordercolor="#666666"
     borderopacity="1.0"
     inkscape:pageopacity="0.0"
     inkscape:pageshadow="2"
     inkscape:zoom="32"
     inkscape:cx="4.9813033"
     inkscape:cy="5.0002526"
     inkscape:document-units="px"
     inkscape:current-layer="layer1"
     showgrid="false"
     fit-margin-left="1"
     fit-margin-top="1"
     fit-margin-bottom="1"
     fit-margin-right="1"
     units="pt"
     inkscape:window-width="1920"
     inkscape:window-height="1056"
     inkscape:window-x="0"
     inkscape:window-y="24"
     inkscape:window-maximized="1" />
  <metadata
     id="metadata7">
    <rdf:RDF>
      <cc:Work
         rdf:about="">
        <dc:format>image/svg+xml</dc:format>
        <dc:type
           rdf:resource="http://purl.org/dc/dcmitype/StillImage" />
        <dc:title></dc:title>
      </cc:Work>
    </rdf:RDF>
  </metadata>
  <g
     inkscape:label="Ebene 1"
     inkscape:groupmode="layer"
     id="layer1"
     transform="translate(-8.3668344,-1011.2574)"
     style="opacity:1">
    <rect
       style="fill:#dfdbd2;fill-opacity:1;stroke:#000000;stroke-width:0;stroke-linejoin:bevel;stroke-miterlimit:4;stroke-dasharray:none;stroke-opacity:1"
       id="rect4136"
       width="27.49999"
       height="27.49999"
       x="9.6168394"
       y="1012.5074"
       ry="3.8230093"
       rx="3.1875" />
    <path
       style="fill:#ffffff;fill-opacity:1;filter:url(#filter5575)"
       d="m 31.310401,1036.7462 c -0.551545,-0.2498 -2.051724,-1.5264 -3.333733,-2.837 l -2.330924,-2.383 -1.031032,0 -1.031035,0 -3.615277,-3.6801 -3.615275,-3.6801 0.179275,-0.6877 0.179279,-0.6877 -0.806683,-0.9616 c -0.443677,-0.5289 -0.806684,-1.1051 -0.806684,-1.2804 0,-0.1753 -0.307465,-0.5979 -0.683254,-0.939 l -0.683254,-0.6203 0.09828,-0.6891 0.09828,-0.6892 0.686981,-0.099 0.686985,-0.099 0.618336,0.6854 c 0.340086,0.3769 0.794435,0.6853 1.009665,0.6853 0.215233,0 0.741792,0.3743 1.170129,0.8316 l 0.778802,0.8316 0.817233,-0.2058 0.817232,-0.2057 3.828932,3.8169 3.828927,3.817 -0.165991,0.8661 -0.165992,0.8661 2.485861,2.4769 2.485862,2.477 0.359677,1.0932 c 0.197825,0.6012 0.264899,1.2471 0.149052,1.4351 -0.115845,0.188 -0.389779,0.3359 -0.60874,0.3287 -0.218959,-0.01 -0.849372,-0.2175 -1.400918,-0.4671 z m 1.580779,-1.0562 c -0.09075,-0.4762 -0.37722,-0.9475 -0.636603,-1.0473 -0.259384,-0.1 -0.56599,-0.087 -0.681353,0.029 -0.115359,0.1157 0.142981,0.587 0.574088,1.0473 0.431112,0.4603 0.811969,0.837 0.846352,0.837 0.03438,0 -0.01173,-0.3896 -0.102484,-0.8659 z m -1.079374,0.3987 c 0,-0.072 -0.233444,-0.2216 -0.518767,-0.3314 l -0.518766,-0.1997 0.204225,0.3314 c 0.112322,0.1824 0.345769,0.3315 0.518767,0.3315 0.172998,0 0.314541,-0.059 0.314541,-0.1318 z m -1.67135,-1.022 c 0,-0.081 -0.173663,-0.2555 -0.385917,-0.387 l -0.385918,-0.2394 0.238512,0.3872 c 0.131181,0.2129 0.304844,0.3871 0.385917,0.3871 0.08108,0 0.147406,-0.067 0.147406,-0.1479 z m 1.33708,-1.2038 c 0,-0.1903 -0.23212,-0.4352 -0.515822,-0.5444 -0.283701,-0.1092 -0.599606,-0.1145 -0.70201,-0.012 -0.102407,0.1027 -0.08704,0.3477 0.03414,0.5443 0.121184,0.1967 0.437092,0.3577 0.702014,0.3577 0.264922,0 0.481676,-0.1557 0.481676,-0.3459 z m -2.674159,-0.084 c 0,-0.052 -0.940134,-0.9949 -2.089186,-2.0957 l -2.089187,-2.0014 1.995156,2.0957 c 1.097335,1.1526 2.037469,2.0956 2.089187,2.0956 0.05172,0 0.09403,-0.042 0.09403,-0.094 z m 1.337079,-1.1736 c 0,-0.1441 -0.889956,-1.1453 -1.977684,-2.2251 l -1.977684,-1.9631 0.174963,-0.4574 0.174964,-0.4574 -0.470314,0 c -0.258674,0 -0.652685,0.183 -0.875583,0.4066 l -0.405272,0.4065 2.251505,2.2759 c 1.238326,1.2518 2.443562,2.276 2.678303,2.276 0.234742,0 0.426802,-0.1179 0.426802,-0.262 z m -6.016857,-2.9235 c 0,-0.092 -0.07521,-0.1676 -0.167135,-0.1676 -0.09192,0 -0.167135,0.076 -0.167135,0.1676 0,0.092 0.07521,0.1678 0.167135,0.1678 0.09192,0 0.167135,-0.076 0.167135,-0.1678 z m -0.66854,-0.2942 c 0,-0.069 -0.263237,-0.3337 -0.584972,-0.5867 l -0.584972,-0.4602 0.458765,0.5867 c 0.252324,0.3227 0.515561,0.5868 0.584973,0.5868 0.06942,0 0.126206,-0.057 0.126206,-0.1266 z m -1.448502,-1.4381 c -0.122566,-0.123 -0.222847,-0.023 -0.222847,0.2235 0,0.2459 0.100281,0.3465 0.222847,0.2236 0.122564,-0.123 0.122564,-0.3242 0,-0.4471 z m -2.228466,-2.2913 c -0.989623,-1.0051 -1.874523,-1.7521 -1.966446,-1.6599 -0.09192,0.092 0.642553,0.9901 1.632176,1.9952 0.989623,1.0051 1.874521,1.7522 1.966446,1.6599 0.09192,-0.092 -0.642554,-0.99 -1.632176,-1.9952 z m 5.657594,1.7068 0.391133,-0.4728 -0.682349,-0.4794 c -0.375291,-0.2637 -0.583023,-0.579 -0.461627,-0.7008 0.121397,-0.1218 -0.03886,-0.2214 -0.356124,-0.2214 -0.317266,0 -0.499863,-0.125 -0.405777,-0.2777 0.09409,-0.1527 -0.709411,-1.1516 -1.785553,-2.2198 l -1.956622,-1.9422 -0.41912,0.2598 -0.419121,0.2599 0.238511,-0.3872 0.238508,-0.3871 -0.501404,0 c -0.275773,0 -0.606116,0.1699 -0.734094,0.3776 l -0.232685,0.3778 3.137821,3.1295 c 1.725803,1.7212 3.23222,3.1356 3.347593,3.143 0.115377,0.01 0.385784,-0.1993 0.60091,-0.4592 z m -8.108905,-4.1098 c -0.122568,-0.1229 -0.222848,-0.023 -0.222848,0.2235 0,0.2459 0.10028,0.3466 0.222848,0.2236 0.122562,-0.123 0.122562,-0.3242 0,-0.4471 z m 1.17455,-2.6349 c 0.0056,-0.1798 -0.379276,-0.6187 -0.855273,-0.9751 -0.476,-0.3565 -0.968791,-0.5445 -1.095088,-0.4178 -0.1263,0.1267 0.125806,0.6098 0.560233,1.0737 0.43443,0.4639 0.922638,0.799 1.084909,0.7447 0.162272,-0.054 0.29962,-0.2458 0.305219,-0.4255 z m -2.400208,-1.4486 c 0,-0.1558 -0.301766,-0.5573 -0.670589,-0.8921 -0.368823,-0.3348 -0.769024,-0.51 -0.889338,-0.3893 -0.120311,0.1207 0.05435,0.5221 0.388127,0.8921 0.333782,0.37 0.733983,0.6726 0.889338,0.6726 0.155353,0 0.282462,-0.1274 0.282462,-0.2833 z"
       id="path4417"
       inkscape:connector-curvature="0" />
    <path
       style="opacity:1;fill:#3c3c3c;fill-opacity:1"
       d="m 31.420785,1036.2395 c -0.551545,-0.2498 -2.051724,-1.5264 -3.333733,-2.837 l -2.330924,-2.383 -1.031032,0 -1.031035,0 -3.615277,-3.6801 -3.615275,-3.6801 0.179275,-0.6877 0.179279,-0.6877 -0.806683,-0.9616 c -0.443677,-0.5289 -0.806684,-1.1051 -0.806684,-1.2804 0,-0.1753 -0.307465,-0.5979 -0.683254,-0.939 l -0.683254,-0.6203 0.09828,-0.6891 0.09828,-0.6892 0.686981,-0.099 0.686985,-0.099 0.618336,0.6854 c 0.340086,0.3769 0.794435,0.6853 1.009665,0.6853 0.215233,0 0.741792,0.3743 1.170129,0.8316 l 0.778802,0.8316 0.817233,-0.2058 0.817232,-0.2057 3.828932,3.8169 3.828927,3.817 -0.165991,0.8661 -0.165992,0.8661 2.485861,2.4769 2.485862,2.477 0.359677,1.0932 c 0.197825,0.6012 0.264899,1.2471 0.149052,1.4351 -0.115845,0.188 -0.389779,0.3359 -0.60874,0.3287 -0.218959,-0.01 -0.849372,-0.2175 -1.400918,-0.4671 z m 1.580779,-1.0562 c -0.09075,-0.4762 -0.37722,-0.9475 -0.636603,-1.0473 -0.259384,-0.1 -0.56599,-0.087 -0.681353,0.029 -0.115359,0.1157 0.142981,0.587 0.574088,1.0473 0.431112,0.4603 0.811969,0.837 0.846352,0.837 0.03438,0 -0.01173,-0.3896 -0.102484,-0.8659 z m -1.079374,0.3987 c 0,-0.072 -0.233444,-0.2216 -0.518767,-0.3314 l -0.518766,-0.1997 0.204225,0.3314 c 0.112322,0.1824 0.345769,0.3315 0.518767,0.3315 0.172998,0 0.314541,-0.059 0.314541,-0.1318 z m -1.67135,-1.022 c 0,-0.081 -0.173663,-0.2555 -0.385917,-0.387 l -0.385918,-0.2394 0.238512,0.3872 c 0.131181,0.2129 0.304844,0.3871 0.385917,0.3871 0.08108,0 0.147406,-0.067 0.147406,-0.1479 z m 1.33708,-1.2038 c 0,-0.1903 -0.23212,-0.4352 -0.515822,-0.5444 -0.283701,-0.1092 -0.599606,-0.1145 -0.70201,-0.012 -0.102407,0.1027 -0.08704,0.3477 0.03414,0.5443 0.121184,0.1967 0.437092,0.3577 0.702014,0.3577 0.264922,0 0.481676,-0.1557 0.481676,-0.3459 z m -2.674159,-0.084 c 0,-0.052 -0.940134,-0.9949 -2.089186,-2.0957 l -2.089187,-2.0014 1.995156,2.0957 c 1.097335,1.1526 2.037469,2.0956 2.089187,2.0956 0.05172,0 0.09403,-0.042 0.09403,-0.094 z m 1.337079,-1.1736 c 0,-0.1441 -0.889956,-1.1453 -1.977684,-2.2251 l -1.977684,-1.9631 0.174963,-0.4574 0.174964,-0.4574 -0.470314,0 c -0.258674,0 -0.652685,0.183 -0.875583,0.4066 l -0.405272,0.4065 2.251505,2.2759 c 1.238326,1.2518 2.443562,2.276 2.678303,2.276 0.234742,0 0.426802,-0.1179 0.426802,-0.262 z m -6.016857,-2.9235 c 0,-0.092 -0.07521,-0.1676 -0.167135,-0.1676 -0.09192,0 -0.167135,0.076 -0.167135,0.1676 0,0.092 0.07521,0.1678 0.167135,0.1678 0.09192,0 0.167135,-0.076 0.167135,-0.1678 z m -0.66854,-0.2942 c 0,-0.069 -0.263237,-0.3337 -0.584972,-0.5867 l -0.584972,-0.4602 0.458765,0.5867 c 0.252324,0.3227 0.515561,0.5868 0.584973,0.5868 0.06942,0 0.126206,-0.057 0.126206,-0.1266 z m -1.448502,-1.4381 c -0.122566,-0.123 -0.222847,-0.023 -0.222847,0.2235 0,0.2459 0.100281,0.3465 0.222847,0.2236 0.122564,-0.123 0.122564,-0.3242 0,-0.4471 z m -2.228466,-2.2913 c -0.989623,-1.0051 -1.874523,-1.7521 -1.966446,-1.6599 -0.09192,0.092 0.642553,0.9901 1.632176,1.9952 0.989623,1.0051 1.874521,1.7522 1.966446,1.6599 0.09192,-0.092 -0.642554,-0.99 -1.632176,-1.9952 z m 5.657594,1.7068 0.391133,-0.4728 -0.682349,-0.4794 c -0.375291,-0.2637 -0.583023,-0.579 -0.461627,-0.7008 0.121397,-0.1218 -0.03886,-0.2214 -0.356124,-0.2214 -0.317266,0 -0.499863,-0.125 -0.405777,-0.2777 0.09409,-0.1527 -0.709411,-1.1516 -1.785553,-2.2198 l -1.956622,-1.9422 -0.41912,0.2598 -0.419121,0.2599 0.238511,-0.3872 0.238508,-0.3871 -0.501404,0 c -0.275773,0 -0.606116,0.1699 -0.734094,0.3776 l -0.232685,0.3778 3.137821,3.1295 c 1.725803,1.7212 3.23222,3.1356 3.347593,3.143 0.115377,0.01 0.385784,-0.1993 0.60091,-0.4592 z m -8.108905,-4.1098 c -0.122568,-0.1229 -0.222848,-0.023 -0.222848,0.2235 0,0.2459 0.10028,0.3466 0.222848,0.2236 0.122562,-0.123 0.122562,-0.3242 0,-0.4471 z m 1.17455,-2.6349 c 0.0056,-0.1798 -0.379276,-0.6187 -0.855273,-0.9751 -0.476,-0.3565 -0.968791,-0.5445 -1.095088,-0.4178 -0.1263,0.1267 0.125806,0.6098 0.560233,1.0737 0.43443,0.4639 0.922638,0.799 1.084909,0.7447 0.162272,-0.054 0.29962,-0.2458 0.305219,-0.4255 z m -2.400208,-1.4486 c 0,-0.1558 -0.301766,-0.5573 -0.670589,-0.8921 -0.368823,-0.3348 -0.769024,-0.51 -0.889338,-0.3893 -0.120311,0.1207 0.05435,0.5221 0.388127,0.8921 0.333782,0.37 0.733983,0.6726 0.889338,0.6726 0.155353,0 0.282462,-0.1274 0.282462,-0.2833 z"
       id="path4417-3"
       inkscape:connector-curvature="0" />
    <ellipse
       style="opacity:0.61000001;fill:#000000;fill-opacity:1;stroke:#000000;stroke-width:0;stroke-linejoin:bevel;stroke-miterlimit:4;stroke-dasharray:none;stroke-opacity:1;filter:url(#filter5559)"
       id="path4297"
       cx="16.235369"
       cy="1033.8264"
       rx="4.3626609"
       ry="4.4876609" />
    <ellipse
       style="opacity:0.652;fill:#ff0000;fill-opacity:1;stroke:#000000;stroke-width:0.5;stroke-linejoin:bevel;stroke-miterlimit:4;stroke-dasharray:none;stroke-opacity:1"
       id="path4297-3"
       cx="16.241835"
       cy="1033.8043"
       rx="4.2689109"
       ry="4.3157859" />
  </g>
</svg>
