<?xml version="1.0" encoding="UTF-8" standalone="no"?>
<!-- Created with Inkscape (http://www.inkscape.org/) -->

<svg
   xmlns:dc="http://purl.org/dc/elements/1.1/"
   xmlns:cc="http://creativecommons.org/ns#"
   xmlns:rdf="http://www.w3.org/1999/02/22-rdf-syntax-ns#"
   xmlns:svg="http://www.w3.org/2000/svg"
   xmlns="http://www.w3.org/2000/svg"
   xmlns:sodipodi="http://sodipodi.sourceforge.net/DTD/sodipodi-0.dtd"
   xmlns:inkscape="http://www.inkscape.org/namespaces/inkscape"
   width="12.808973mm"
   height="17.209106mm"
   viewBox="0 0 45.386126 60.977149"
   id="svg2"
   version="1.1"
   inkscape:version="0.91 r13725"
   sodipodi:docname="loudspeaker.svg">
  <defs
     id="defs4" />
  <sodipodi:namedview
     id="base"
     pagecolor="#ffffff"
     bordercolor="#666666"
     borderopacity="1.0"
     inkscape:pageopacity="0.0"
     inkscape:pageshadow="2"
     inkscape:zoom="1.979899"
     inkscape:cx="-36.514667"
     inkscape:cy="-48.508636"
     inkscape:document-units="px"
     inkscape:current-layer="layer1"
     showgrid="false"
     inkscape:window-width="1920"
     inkscape:window-height="1056"
     inkscape:window-x="0"
     inkscape:window-y="24"
     inkscape:window-maximized="1"
     fit-margin-top="0"
     fit-margin-left="0"
     fit-margin-right="0"
     fit-margin-bottom="0" />
  <metadata
     id="metadata7">
    <rdf:RDF>
      <cc:Work
         rdf:about="">
        <dc:format>image/svg+xml</dc:format>
        <dc:type
           rdf:resource="http://purl.org/dc/dcmitype/StillImage" />
        <dc:title></dc:title>
      </cc:Work>
    </rdf:RDF>
  </metadata>
  <g
     inkscape:label="Ebene 1"
     inkscape:groupmode="layer"
     id="layer1"
     transform="translate(-531.82123,-783.43288)">
    <path
       style="fill:#000000"
       d="m 557.76161,841.80709 c -1.71631,-1.44419 -4.04855,-4.48169 -5.18274,-6.75 -1.1342,-2.26832 -3.68079,-5.81171 -5.6591,-7.87421 -2.85359,-2.97503 -4.34212,-3.75 -7.20285,-3.75 -5.68726,0 -7.27419,-1.80591 -7.78433,-8.8585 -0.60402,-8.35062 1.17724,-11.1415 7.11099,-11.1415 3.71212,0 4.80348,-0.55419 8.36959,-4.25 2.25546,-2.3375 4.41386,-5.29207 4.79645,-6.56571 0.38258,-1.27363 2.05251,-3.86113 3.71095,-5.75 2.5557,-2.91077 3.66975,-3.43429 7.30817,-3.43429 3.65511,0 4.74991,0.5206 7.36977,3.50446 4.78924,5.45464 6.63385,12.9897 6.60859,26.99554 -0.0263,14.57242 -1.97933,22.20097 -6.95873,27.18037 -4.15693,4.15693 -8.11005,4.37659 -12.48676,0.69384 z m 12.06592,-1.47997 c 1.59567,-1.70816 2.90121,-3.55575 2.90121,-4.10575 0,-0.55 -1.30554,0.39759 -2.90121,2.10575 -4.7151,5.04754 -9.14229,3.55705 -13.05218,-4.39424 -2.10069,-4.27204 -2.74935,-3.49015 -0.98299,1.1849 1.55872,4.12551 5.95346,8.3151 8.72226,8.3151 1.40849,0 3.61854,-1.29192 5.31291,-3.10576 z m -3.71706,-5.44664 c 0.50281,-1.31029 -1.50306,-5.72783 -3.38173,-7.4476 -0.30041,-0.275 -1.34307,-1.75184 -2.31703,-3.28187 -0.97396,-1.53002 -2.15914,-2.54187 -2.63374,-2.24855 -0.47461,0.29332 -0.36706,-1.08233 0.23898,-3.057 0.94715,-3.08607 1.20532,-3.31072 1.83832,-1.59957 0.40503,1.0949 2.90476,3.6486 5.55494,5.67489 l 4.81853,3.68417 0.54225,-2.83604 0.54226,-2.83603 0.68274,3.25 c 0.86455,4.11541 2.29814,4.17307 3.10775,0.125 1.12848,-5.64242 0.74757,-10.875 -0.79167,-10.875 -0.77916,0 -1.64364,0.5625 -1.92105,1.25 -0.27741,0.6875 -0.53991,-0.23906 -0.58333,-2.05902 -0.0434,-1.81996 0.28004,-3.08715 0.7188,-2.81598 0.43876,0.27117 1.39256,0.12542 2.11956,-0.3239 1.07169,-0.66233 1.09953,-1.92717 0.14712,-6.68401 -0.64608,-3.2269 -1.24632,-6.65459 -1.33385,-7.61709 -0.0875,-0.9625 -0.58772,-1.75 -1.11153,-1.75 -0.52381,0 -0.65938,-0.29301 -0.30126,-0.65112 0.35812,-0.35812 -0.12938,-1.29149 -1.08333,-2.07416 -0.95396,-0.78267 -1.12706,-1.11036 -0.38469,-0.7282 1.08469,0.55838 1.12929,0.28286 0.22708,-1.40292 -1.53919,-2.87601 -4.18478,-4.11623 -8.43936,-3.95629 -4.08932,0.15374 -6.77572,2.50593 -9.03358,7.90976 -1.5354,3.67472 -11.55511,15.22589 -11.5864,13.35732 -0.01,-0.57509 -1.56995,-1.15017 -3.46737,-1.27795 -2.55682,-0.1722 -3.7217,0.2756 -4.5,1.72987 -2.22564,4.15865 -1.43331,4.90836 5.19986,4.92019 7.73557,0.0138 9.52241,-0.45572 9.98437,-2.62349 0.1996,-0.93665 0.67438,2.34699 1.05505,7.29699 0.38067,4.95 1.19314,10.78058 1.80547,12.95684 l 1.11334,3.95685 1.36045,-2.45685 c 0.74825,-1.35126 1.37808,-2.00684 1.39962,-1.45684 0.0215,0.55 0.93088,2.4625 2.02074,4.25 1.50428,2.4672 2.68192,3.25 4.88927,3.25 1.70576,0 3.15396,-0.64171 3.50342,-1.5524 z m -13.38173,-6.38858 c 0,-1.06754 0.38499,-2.17893 0.85554,-2.46974 0.47055,-0.29082 0.64309,0.58263 0.38343,1.94098 -0.56402,2.95046 -1.23897,3.23851 -1.23897,0.52876 z m -0.57064,-12.76223 c 0.0581,-8.39012 0.30272,-9.9731 1.37667,-8.90825 1.54461,1.53151 1.83205,11.13191 0.38602,12.89304 -0.55023,0.67013 -1.18782,2.34342 -1.41688,3.71842 -0.22905,1.375 -0.38467,-2.09145 -0.34581,-7.70321 z m 5.76552,-8.76841 c -0.6336,-1.39061 -1.78419,-2.52838 -2.55686,-2.52838 -0.77268,0 -1.61732,-1.11138 -1.87699,-2.46974 -0.28576,-1.49486 -0.0772,-2.22565 0.52842,-1.85137 0.61223,0.37838 0.80628,-0.3978 0.5,-2 -0.2753,-1.4401 -0.16777,-2.4127 0.23895,-2.16134 0.40672,0.25137 1.30008,-0.89636 1.98525,-2.55051 2.4155,-5.83154 9.35546,-9.4149 11.50331,-5.93959 0.26719,0.43232 -0.41482,0.55051 -1.51558,0.26266 -1.61658,-0.42275 -2.00138,-0.0316 -2.00138,2.03424 0,1.40669 0.45643,2.83971 1.01429,3.18448 1.45533,0.89944 5.23405,8.57616 4.55547,9.25474 -0.31337,0.31337 -0.56976,0.0146 -0.56976,-0.66385 0,-1.05697 -8.41892,4.94077 -10.07655,7.17866 -0.31711,0.4281 -1.09496,-0.3594 -1.72857,-1.75 z m -19.19488,11.47162 c 0,-1.55556 -0.66667,-2 -3,-2 -3.24252,0 -3.29905,0.0571 -2.39301,2.41821 0.92252,2.40406 5.39301,2.05739 5.39301,-0.41821 z"
       id="path4819"
       inkscape:connector-curvature="0" />
    <path
       style="fill:#000000"
       d="m 388.08482,858.50845 c 0,-5.24347 8.65374,-18.42642 20.5,-31.22933 6.05,-6.53857 11.50013,-12.97961 12.11139,-14.31343 0.61127,-1.33382 1.82037,-4.06835 2.68691,-6.07675 2.86236,-6.63417 11.054,-7.36007 16.58754,-1.46989 5.17894,5.51273 2.72452,14.17802 -4.60923,16.27279 -4.25726,1.21602 -11.77443,6.18425 -10.8125,7.14617 0.28519,0.2852 0.0442,1.09012 -0.53561,1.78872 -1.22294,1.47354 0.52722,5.42512 4.48714,10.13122 2.3225,2.76013 4.68527,12.08358 4.50652,17.78262 -0.0627,2 -0.0627,2 -0.92216,0 -0.73491,-1.71022 -0.86961,-1.74644 -0.92971,-0.25 -0.0453,1.1273 -0.8709,1.75002 -2.32029,1.75007 -2.08977,6e-5 -2.25,-0.4385 -2.25,-6.1582 0,-6.43657 -1.98792,-9.40708 -2.77803,-4.15116 -0.41863,2.78481 -0.42361,2.782 -0.57214,-0.32237 -0.12228,-2.55576 -1.00753,-3.68959 -4.81386,-6.16558 -5.12981,-3.33689 -5.55166,-3.25662 -12.517,2.38178 -1.47457,1.19365 -4.80081,3.19644 -7.39164,4.45064 -3.56665,1.72659 -5.1012,3.21097 -6.31897,6.11242 -1.60246,3.818 -4.10836,5.23326 -4.10836,2.32028 z m 1.68311,-1.65538 c -0.31922,-0.79773 -0.55618,-0.56078 -0.60416,0.60417 -0.0434,1.05416 0.19293,1.64479 0.52522,1.3125 0.33229,-0.3323 0.36781,-1.1948 0.0789,-1.91667 z m 41.48828,-4.8125 c -0.2098,-2.2 -0.5592,-4 -0.77642,-4 -0.21724,0 -0.39497,1.8 -0.39497,4 0,2.2 0.34939,4 0.77643,4 0.42703,0 0.60476,-1.8 0.39496,-4 z m -34.99957,-3.49485 c 0.24266,0.24266 1.90604,-0.89673 3.69641,-2.53198 1.79036,-1.63524 3.66706,-2.97317 4.17043,-2.97317 0.50338,0 1.69362,-1.2375 2.64497,-2.75 2.36421,-3.75869 13.90225,-15.33078 14.59499,-14.63805 0.30764,0.30764 1.09097,-0.43402 1.74075,-1.64814 0.9997,-1.86797 0.85095,-2.53479 -0.96716,-4.33565 l -2.14856,-2.12816 -9.20183,9.56025 c -10.54361,10.9543 -12.06678,12.76766 -14.46301,17.21844 -0.95634,1.77633 -2.75131,4.64727 -3.98881,6.37987 -3.23342,4.52704 -2.77607,5.27843 0.61531,1.01092 1.57592,-1.98304 3.06385,-3.40699 3.30651,-3.16433 z m 9.71011,-12.00515 c 2.02364,-3.69836 11.96013,-13.99127 12.74708,-13.20432 0.42847,0.42847 -2.51057,4.02472 -6.5312,7.99168 -4.02062,3.96695 -6.81777,6.31264 -6.21588,5.21264 z m 22.51506,8.33333 c -0.28326,-0.45833 -0.93847,-0.83333 -1.45601,-0.83333 -0.51754,0 -0.94098,0.375 -0.94098,0.83333 0,0.45834 0.65521,0.83334 1.45601,0.83334 0.80081,0 1.22425,-0.375 0.94098,-0.83334 z m -2.91397,-1.81457 c 1.48587,-1.64187 1.57236,-2.24711 0.5049,-3.53331 -1.15044,-1.3862 -1.53222,-1.32274 -3.57228,0.59381 -1.80127,1.69219 -2.03381,2.43116 -1.09991,3.49527 1.59609,1.81863 2.07647,1.75457 4.16729,-0.55577 z m 1.53255,-23.53752 c 1.03143,-1.2428 0.93525,-1.8781 -0.52935,-3.49647 -1.46754,-1.62161 -2.06627,-1.75327 -3.32524,-0.73124 -1.28995,1.04718 -1.43058,0.96667 -0.8796,-0.50353 0.91292,-2.43595 0.0253,-2.19149 -1.34596,0.37068 -0.79768,1.49047 -0.80814,1.91869 -0.0352,1.44098 0.60486,-0.37383 1.09976,-0.0681 1.09976,0.67932 0,1.42233 1.91307,3.75902 3.07756,3.75902 0.37265,0 1.24476,-0.68344 1.93801,-1.51876 z m 7.98443,-1.88546 c 0,-0.64403 -2.2667,-3.40358 -5.03711,-6.13234 -4.1268,-4.06474 -5.20837,-4.69047 -5.98469,-3.4624 -1.52362,2.4102 -1.20139,3.19585 3.11437,7.59328 2.81687,2.87019 4.68713,4.01454 6,3.67122 1.04909,-0.27434 1.90743,-1.02574 1.90743,-1.66976 z m -2.9729,-7.06844 c -3.52832,-3.55996 -6.63958,-6.24819 -6.91393,-5.97384 -0.65448,0.65447 11.02398,12.4465 12.32664,12.4465 0.55133,0 -1.88439,-2.9127 -5.41271,-6.47266 z m 7.93532,1.56339 c 1.51475,-3.65692 0.20888,-6.43366 -4.06505,-8.6438 -2.86126,-1.47961 -8.89737,-1.24143 -8.89737,0.35108 0,0.85363 10.24908,11.20199 11.09452,11.20199 0.36456,0 1.20512,-1.30917 1.8679,-2.90927 z m -17.73042,44.90927 c 0,-1.925 0.2058,-2.7125 0.45733,-1.75 0.25152,0.9625 0.25152,2.5375 0,3.5 -0.25153,0.9625 -0.45733,0.175 -0.45733,-1.75 z"
       id="path4817"
       inkscape:connector-curvature="0" />
  </g>
</svg>
