<?xml version="1.0" encoding="UTF-8" standalone="no"?>
<!-- Created with Inkscape (http://www.inkscape.org/) -->

<svg
   xmlns:dc="http://purl.org/dc/elements/1.1/"
   xmlns:cc="http://creativecommons.org/ns#"
   xmlns:rdf="http://www.w3.org/1999/02/22-rdf-syntax-ns#"
   xmlns:svg="http://www.w3.org/2000/svg"
   xmlns="http://www.w3.org/2000/svg"
   xmlns:sodipodi="http://sodipodi.sourceforge.net/DTD/sodipodi-0.dtd"
   xmlns:inkscape="http://www.inkscape.org/namespaces/inkscape"
   width="15.420599mm"
   height="16.549679mm"
   viewBox="0 0 54.639918 58.640594"
   id="svg2"
   version="1.1"
   inkscape:version="0.91 r13725"
   sodipodi:docname="mic.svg">
  <defs
     id="defs4" />
  <sodipodi:namedview
     id="base"
     pagecolor="#ffffff"
     bordercolor="#666666"
     borderopacity="1.0"
     inkscape:pageopacity="0.0"
     inkscape:pageshadow="2"
     inkscape:zoom="1.979899"
     inkscape:cx="5.1963337"
     inkscape:cy="-32.85674"
     inkscape:document-units="px"
     inkscape:current-layer="layer1"
     showgrid="false"
     inkscape:window-width="1920"
     inkscape:window-height="1056"
     inkscape:window-x="0"
     inkscape:window-y="24"
     inkscape:window-maximized="1"
     fit-margin-top="0"
     fit-margin-left="0"
     fit-margin-right="0"
     fit-margin-bottom="0" />
  <metadata
     id="metadata7">
    <rdf:RDF>
      <cc:Work
         rdf:about="">
        <dc:format>image/svg+xml</dc:format>
        <dc:type
           rdf:resource="http://purl.org/dc/dcmitype/StillImage" />
        <dc:title />
      </cc:Work>
    </rdf:RDF>
  </metadata>
  <g
     inkscape:label="Ebene 1"
     inkscape:groupmode="layer"
     id="layer1"
     transform="translate(-388.08482,-801.42133)">
    <path
       style="fill:#000000"
       d="m 388.08482,858.50845 c 0,-5.24347 8.65374,-18.42642 20.5,-31.22933 6.05,-6.53857 11.50013,-12.97961 12.11139,-14.31343 0.61127,-1.33382 1.82037,-4.06835 2.68691,-6.07675 2.86236,-6.63417 11.054,-7.36007 16.58754,-1.46989 5.17894,5.51273 2.72452,14.17802 -4.60923,16.27279 -4.25726,1.21602 -11.77443,6.18425 -10.8125,7.14617 0.28519,0.2852 0.0442,1.09012 -0.53561,1.78872 -1.22294,1.47354 0.52722,5.42512 4.48714,10.13122 2.3225,2.76013 4.68527,12.08358 4.50652,17.78262 -0.0627,2 -0.0627,2 -0.92216,0 -0.73491,-1.71022 -0.86961,-1.74644 -0.92971,-0.25 -0.0453,1.1273 -0.8709,1.75002 -2.32029,1.75007 -2.08977,6e-5 -2.25,-0.4385 -2.25,-6.1582 0,-6.43657 -1.98792,-9.40708 -2.77803,-4.15116 -0.41863,2.78481 -0.42361,2.782 -0.57214,-0.32237 -0.12228,-2.55576 -1.00753,-3.68959 -4.81386,-6.16558 -5.12981,-3.33689 -5.55166,-3.25662 -12.517,2.38178 -1.47457,1.19365 -4.80081,3.19644 -7.39164,4.45064 -3.56665,1.72659 -5.1012,3.21097 -6.31897,6.11242 -1.60246,3.818 -4.10836,5.23326 -4.10836,2.32028 z m 1.68311,-1.65538 c -0.31922,-0.79773 -0.55618,-0.56078 -0.60416,0.60417 -0.0434,1.05416 0.19293,1.64479 0.52522,1.3125 0.33229,-0.3323 0.36781,-1.1948 0.0789,-1.91667 z m 41.48828,-4.8125 c -0.2098,-2.2 -0.5592,-4 -0.77642,-4 -0.21724,0 -0.39497,1.8 -0.39497,4 0,2.2 0.34939,4 0.77643,4 0.42703,0 0.60476,-1.8 0.39496,-4 z m -34.99957,-3.49485 c 0.24266,0.24266 1.90604,-0.89673 3.69641,-2.53198 1.79036,-1.63524 3.66706,-2.97317 4.17043,-2.97317 0.50338,0 1.69362,-1.2375 2.64497,-2.75 2.36421,-3.75869 13.90225,-15.33078 14.59499,-14.63805 0.30764,0.30764 1.09097,-0.43402 1.74075,-1.64814 0.9997,-1.86797 0.85095,-2.53479 -0.96716,-4.33565 l -2.14856,-2.12816 -9.20183,9.56025 c -10.54361,10.9543 -12.06678,12.76766 -14.46301,17.21844 -0.95634,1.77633 -2.75131,4.64727 -3.98881,6.37987 -3.23342,4.52704 -2.77607,5.27843 0.61531,1.01092 1.57592,-1.98304 3.06385,-3.40699 3.30651,-3.16433 z m 9.71011,-12.00515 c 2.02364,-3.69836 11.96013,-13.99127 12.74708,-13.20432 0.42847,0.42847 -2.51057,4.02472 -6.5312,7.99168 -4.02062,3.96695 -6.81777,6.31264 -6.21588,5.21264 z m 22.51506,8.33333 c -0.28326,-0.45833 -0.93847,-0.83333 -1.45601,-0.83333 -0.51754,0 -0.94098,0.375 -0.94098,0.83333 0,0.45834 0.65521,0.83334 1.45601,0.83334 0.80081,0 1.22425,-0.375 0.94098,-0.83334 z m -2.91397,-1.81457 c 1.48587,-1.64187 1.57236,-2.24711 0.5049,-3.53331 -1.15044,-1.3862 -1.53222,-1.32274 -3.57228,0.59381 -1.80127,1.69219 -2.03381,2.43116 -1.09991,3.49527 1.59609,1.81863 2.07647,1.75457 4.16729,-0.55577 z m 1.53255,-23.53752 c 1.03143,-1.2428 0.93525,-1.8781 -0.52935,-3.49647 -1.46754,-1.62161 -2.06627,-1.75327 -3.32524,-0.73124 -1.28995,1.04718 -1.43058,0.96667 -0.8796,-0.50353 0.91292,-2.43595 0.0253,-2.19149 -1.34596,0.37068 -0.79768,1.49047 -0.80814,1.91869 -0.0352,1.44098 0.60486,-0.37383 1.09976,-0.0681 1.09976,0.67932 0,1.42233 1.91307,3.75902 3.07756,3.75902 0.37265,0 1.24476,-0.68344 1.93801,-1.51876 z m 7.98443,-1.88546 c 0,-0.64403 -2.2667,-3.40358 -5.03711,-6.13234 -4.1268,-4.06474 -5.20837,-4.69047 -5.98469,-3.4624 -1.52362,2.4102 -1.20139,3.19585 3.11437,7.59328 2.81687,2.87019 4.68713,4.01454 6,3.67122 1.04909,-0.27434 1.90743,-1.02574 1.90743,-1.66976 z m -2.9729,-7.06844 c -3.52832,-3.55996 -6.63958,-6.24819 -6.91393,-5.97384 -0.65448,0.65447 11.02398,12.4465 12.32664,12.4465 0.55133,0 -1.88439,-2.9127 -5.41271,-6.47266 z m 7.93532,1.56339 c 1.51475,-3.65692 0.20888,-6.43366 -4.06505,-8.6438 -2.86126,-1.47961 -8.89737,-1.24143 -8.89737,0.35108 0,0.85363 10.24908,11.20199 11.09452,11.20199 0.36456,0 1.20512,-1.30917 1.8679,-2.90927 z m -17.73042,44.90927 c 0,-1.925 0.2058,-2.7125 0.45733,-1.75 0.25152,0.9625 0.25152,2.5375 0,3.5 -0.25153,0.9625 -0.45733,0.175 -0.45733,-1.75 z"
       id="path4817"
       inkscape:connector-curvature="0" />
  </g>
</svg>
