<?xml version="1.0" encoding="UTF-8" standalone="no"?>
<!-- Created with Inkscape (http://www.inkscape.org/) -->

<svg
   xmlns:dc="http://purl.org/dc/elements/1.1/"
   xmlns:cc="http://creativecommons.org/ns#"
   xmlns:rdf="http://www.w3.org/1999/02/22-rdf-syntax-ns#"
   xmlns:svg="http://www.w3.org/2000/svg"
   xmlns="http://www.w3.org/2000/svg"
   xmlns:xlink="http://www.w3.org/1999/xlink"
   xmlns:sodipodi="http://sodipodi.sourceforge.net/DTD/sodipodi-0.dtd"
   xmlns:inkscape="http://www.inkscape.org/namespaces/inkscape"
   width="15.593633mm"
   height="15.522223mm"
   viewBox="0 0 55.253029 54.999995"
   id="svg2"
   version="1.1"
   inkscape:version="0.91 r13725"
   sodipodi:docname="midi_in.svg">
  <defs
     id="defs4">
    <linearGradient
       id="linearGradient4298">
      <stop
         offset="0"
         style="stop-color:#ffd639;stop-opacity:1"
         id="stop4300" />
      <stop
         offset="0.5"
         style="stop-color:#eed96a;stop-opacity:0.67450982"
         id="stop4302" />
      <stop
         offset="1"
         style="stop-color:#e4c731;stop-opacity:0"
         id="stop4304" />
    </linearGradient>
    <linearGradient
       id="linearGradient4631">
      <stop
         offset="0"
         style="stop-color:#c3b194;stop-opacity:1"
         id="stop4633" />
      <stop
         offset="1"
         style="stop-color:#e1c497;stop-opacity:1"
         id="stop4635" />
    </linearGradient>
    <linearGradient
       id="linearGradient4549">
      <stop
         offset="0"
         style="stop-color:#c4c4c4;stop-opacity:1"
         id="stop4551" />
      <stop
         offset="1"
         style="stop-color:#f1f1f1;stop-opacity:1"
         id="stop4553" />
    </linearGradient>
    <linearGradient
       id="linearGradient4541">
      <stop
         offset="0"
         style="stop-color:#dc6819;stop-opacity:1"
         id="stop4543" />
      <stop
         offset="1"
         style="stop-color:#efa471;stop-opacity:1"
         id="stop4545" />
    </linearGradient>
    <linearGradient
       id="linearGradient4410">
      <stop
         offset="0"
         style="stop-color:#ffffff;stop-opacity:1"
         id="stop4412" />
      <stop
         offset="0.49890673"
         style="stop-color:#cccccc;stop-opacity:1"
         id="stop4416" />
      <stop
         offset="0.60806364"
         style="stop-color:#969696;stop-opacity:1"
         id="stop4418" />
      <stop
         offset="1"
         style="stop-color:#ffffff;stop-opacity:1"
         id="stop4420" />
    </linearGradient>
    <linearGradient
       id="linearGradient4004">
      <stop
         offset="0"
         style="stop-color:#ffffff;stop-opacity:1"
         id="stop4006" />
      <stop
         offset="0.39724174"
         style="stop-color:#cccccc;stop-opacity:1"
         id="stop4016" />
      <stop
         offset="0.49890673"
         style="stop-color:#cccccc;stop-opacity:1"
         id="stop4014" />
      <stop
         offset="0.60806364"
         style="stop-color:#777777;stop-opacity:1"
         id="stop4012" />
      <stop
         offset="1"
         style="stop-color:#ffffff;stop-opacity:1"
         id="stop4008" />
    </linearGradient>
    <linearGradient
       id="linearGradient3992">
      <stop
         offset="0"
         style="stop-color:#ffffff;stop-opacity:1"
         id="stop3994" />
      <stop
         offset="0.19255805"
         style="stop-color:#7f7f7f;stop-opacity:0"
         id="stop4000" />
      <stop
         offset="1"
         style="stop-color:#000000;stop-opacity:1"
         id="stop3996" />
    </linearGradient>
    <linearGradient
       id="linearGradient3971">
      <stop
         offset="0"
         style="stop-color:#4d4d4d;stop-opacity:1"
         id="stop3973" />
      <stop
         offset="1"
         style="stop-color:#333333;stop-opacity:1"
         id="stop3975" />
    </linearGradient>
    <linearGradient
       id="linearGradient3875">
      <stop
         offset="0"
         style="stop-color:#3e8116;stop-opacity:1"
         id="stop3877" />
      <stop
         offset="1"
         style="stop-color:#66ae3b;stop-opacity:1"
         id="stop3879" />
    </linearGradient>
    <linearGradient
       id="linearGradient3869">
      <stop
         offset="0"
         style="stop-color:#958741;stop-opacity:1"
         id="stop3871" />
      <stop
         offset="1"
         style="stop-color:#b4ba66;stop-opacity:1"
         id="stop3873" />
    </linearGradient>
    <linearGradient
       id="linearGradient3809">
      <stop
         offset="0"
         style="stop-color:#ffbd2a;stop-opacity:1"
         id="stop3811" />
      <stop
         offset="1"
         style="stop-color:#ffe62a;stop-opacity:1"
         id="stop3813" />
    </linearGradient>
    <linearGradient
       gradientTransform="scale(1.0058652,0.994169)"
       gradientUnits="userSpaceOnUse"
       id="ButtonShadow"
       y2="7.0165396"
       x2="45.447727"
       y1="92.539597"
       x1="45.447727">
      <stop
         offset="0"
         style="stop-color:#000000;stop-opacity:1"
         id="stop3750" />
      <stop
         offset="1"
         style="stop-color:#000000;stop-opacity:0.58823532"
         id="stop3752" />
    </linearGradient>
    <linearGradient
       id="linearGradient3737">
      <stop
         offset="0"
         style="stop-color:#ffffff;stop-opacity:1"
         id="stop3739" />
      <stop
         offset="1"
         style="stop-color:#ffffff;stop-opacity:0"
         id="stop3741" />
    </linearGradient>
    <linearGradient
       id="linearGradient3700">
      <stop
         offset="0"
         style="stop-color:#548238;stop-opacity:1"
         id="stop3702" />
      <stop
         offset="1"
         style="stop-color:#7dc851;stop-opacity:1"
         id="stop3704" />
    </linearGradient>
    <filter
       id="filter3174"
       style="color-interpolation-filters:sRGB">
      <feGaussianBlur
         stdDeviation="1.71"
         id="feGaussianBlur3176" />
    </filter>
    <linearGradient
       gradientTransform="translate(-100,0)"
       gradientUnits="userSpaceOnUse"
       xlink:href="#linearGradient3737"
       id="linearGradient3188"
       y2="63.893143"
       x2="36.357143"
       y1="6"
       x1="36.357143" />
    <filter
       id="filter3794"
       height="1.3839999"
       width="1.3839999"
       y="-0.192"
       x="-0.192"
       style="color-interpolation-filters:sRGB">
      <feGaussianBlur
         stdDeviation="5.28"
         id="feGaussianBlur3796" />
    </filter>
    <linearGradient
       gradientUnits="userSpaceOnUse"
       xlink:href="#linearGradient3737"
       id="linearGradient3613"
       y2="138.66119"
       x2="48"
       y1="20.220806"
       x1="48" />
    <radialGradient
       gradientTransform="matrix(1.1573129,0,0,0.99590774,-107.55102,0.19713193)"
       gradientUnits="userSpaceOnUse"
       xlink:href="#linearGradient3737"
       id="radialGradient3619"
       fy="90.171875"
       fx="48"
       r="42"
       cy="90.171875"
       cx="48" />
    <clipPath
       id="clipPath3613">
      <rect
         style="fill:#ffffff;fill-opacity:1;fill-rule:nonzero;stroke:none"
         id="rect3615"
         y="6"
         x="6"
         ry="6"
         rx="6"
         height="84"
         width="84" />
    </clipPath>
    <linearGradient
       gradientUnits="userSpaceOnUse"
       xlink:href="#linearGradient3875"
       id="linearGradient3617"
       y2="5.9877172"
       x2="48"
       y1="90"
       x1="48" />
    <linearGradient
       gradientTransform="translate(-88,12)"
       gradientUnits="userSpaceOnUse"
       xlink:href="#linearGradient3700"
       id="linearGradient3668"
       y2="5.9877172"
       x2="48"
       y1="90"
       x1="48" />
    <linearGradient
       gradientTransform="translate(-100,0)"
       gradientUnits="userSpaceOnUse"
       xlink:href="#linearGradient3700"
       id="linearGradient3672"
       y2="5.9877172"
       x2="48"
       y1="90"
       x1="48" />
    <linearGradient
       gradientUnits="userSpaceOnUse"
       xlink:href="#linearGradient3737"
       id="linearGradient3688"
       y2="72"
       x2="40"
       y1="8"
       x1="40" />
    <radialGradient
       gradientTransform="matrix(1.1428571,0,0,1,-6.8571429,0)"
       gradientUnits="userSpaceOnUse"
       xlink:href="#linearGradient3737"
       id="radialGradient3704"
       fy="90"
       fx="47.999977"
       r="42"
       cy="90"
       cx="47.999977" />
    <linearGradient
       gradientUnits="userSpaceOnUse"
       xlink:href="#ButtonShadow"
       id="linearGradient3750"
       y2="4.4147615"
       x2="37.081696"
       y1="95.233528"
       x1="37.081696" />
    <linearGradient
       gradientUnits="userSpaceOnUse"
       xlink:href="#ButtonShadow"
       id="linearGradient3752"
       y2="4.6399517"
       x2="41.301643"
       y1="93.716301"
       x1="41.301643" />
    <linearGradient
       gradientUnits="userSpaceOnUse"
       xlink:href="#ButtonShadow"
       id="linearGradient3754"
       y2="5.910502"
       x2="38.802448"
       y1="93.282806"
       x1="38.802448" />
    <linearGradient
       gradientUnits="userSpaceOnUse"
       xlink:href="#ButtonShadow"
       id="linearGradient3756"
       y2="6.6451721"
       x2="35.561268"
       y1="91.98233"
       x1="35.561268" />
    <linearGradient
       gradientUnits="userSpaceOnUse"
       xlink:href="#ButtonShadow"
       id="linearGradient3758"
       y2="6.7282896"
       x2="40"
       y1="90.817703"
       x1="40" />
    <linearGradient
       gradientTransform="translate(12,12)"
       gradientUnits="userSpaceOnUse"
       xlink:href="#linearGradient3869"
       id="linearGradient3767"
       y2="5.9877172"
       x2="48"
       y1="90"
       x1="48" />
    <linearGradient
       gradientTransform="matrix(1,0,0,0.5,-166,37)"
       gradientUnits="userSpaceOnUse"
       xlink:href="#linearGradient3809"
       id="linearGradient3815"
       y2="72"
       x2="88"
       y1="72"
       x1="78" />
    <linearGradient
       gradientTransform="matrix(1,0,0,0.5,-166,33)"
       gradientUnits="userSpaceOnUse"
       xlink:href="#linearGradient3809"
       id="linearGradient3819"
       y2="72"
       x2="88"
       y1="72"
       x1="78" />
    <linearGradient
       gradientTransform="matrix(1,0,0,0.5,-166,29)"
       gradientUnits="userSpaceOnUse"
       xlink:href="#linearGradient3809"
       id="linearGradient3823"
       y2="72"
       x2="88"
       y1="72"
       x1="78" />
    <linearGradient
       gradientTransform="matrix(1,0,0,0.5,-166,25)"
       gradientUnits="userSpaceOnUse"
       xlink:href="#linearGradient3809"
       id="linearGradient3827"
       y2="72"
       x2="88"
       y1="72"
       x1="78" />
    <linearGradient
       gradientTransform="matrix(1,0,0,0.5,-166,21)"
       gradientUnits="userSpaceOnUse"
       xlink:href="#linearGradient3809"
       id="linearGradient3831"
       y2="72"
       x2="88"
       y1="72"
       x1="78" />
    <linearGradient
       gradientTransform="matrix(1,0,0,0.5,-166,17)"
       gradientUnits="userSpaceOnUse"
       xlink:href="#linearGradient3809"
       id="linearGradient3835"
       y2="72"
       x2="88"
       y1="72"
       x1="78" />
    <linearGradient
       gradientTransform="matrix(1,0,0,0.5,-166,13)"
       gradientUnits="userSpaceOnUse"
       xlink:href="#linearGradient3809"
       id="linearGradient3839"
       y2="72"
       x2="88"
       y1="72"
       x1="78" />
    <linearGradient
       gradientTransform="matrix(1,0,0,0.5,-166,9)"
       gradientUnits="userSpaceOnUse"
       xlink:href="#linearGradient3809"
       id="linearGradient3843"
       y2="72"
       x2="88"
       y1="72"
       x1="78" />
    <linearGradient
       gradientTransform="matrix(1,0,0,0.5,-166,-1)"
       gradientUnits="userSpaceOnUse"
       xlink:href="#linearGradient3809"
       id="linearGradient3851"
       y2="72"
       x2="88"
       y1="72"
       x1="78" />
    <linearGradient
       gradientTransform="matrix(1,0,0,0.5,-166,-5)"
       gradientUnits="userSpaceOnUse"
       xlink:href="#linearGradient3809"
       id="linearGradient3855"
       y2="72"
       x2="88"
       y1="72"
       x1="78" />
    <linearGradient
       gradientTransform="matrix(1,0,0,0.5,-166,-9)"
       gradientUnits="userSpaceOnUse"
       xlink:href="#linearGradient3809"
       id="linearGradient3859"
       y2="72"
       x2="88"
       y1="72"
       x1="78" />
    <linearGradient
       gradientTransform="matrix(1,0,0,0.5,-166,-13)"
       gradientUnits="userSpaceOnUse"
       xlink:href="#linearGradient3809"
       id="linearGradient3863"
       y2="72"
       x2="88"
       y1="72"
       x1="78" />
    <radialGradient
       gradientTransform="matrix(1.5,0,0,1.5,-16,-16)"
       gradientUnits="userSpaceOnUse"
       xlink:href="#linearGradient3971"
       id="radialGradient3977"
       fy="32"
       fx="32"
       r="16"
       cy="32"
       cx="32" />
    <linearGradient
       gradientUnits="userSpaceOnUse"
       xlink:href="#linearGradient3992"
       id="linearGradient3998"
       y2="48"
       x2="40"
       y1="24"
       x1="40" />
    <linearGradient
       gradientTransform="matrix(1,0,0,0.5,0,42)"
       gradientUnits="userSpaceOnUse"
       xlink:href="#linearGradient4004"
       id="linearGradient4184"
       y2="25"
       x2="16"
       y1="25"
       x1="11" />
    <linearGradient
       gradientTransform="matrix(1,0,0,0.5,0,40)"
       gradientUnits="userSpaceOnUse"
       xlink:href="#linearGradient4004"
       id="linearGradient4186"
       y2="25"
       x2="16"
       y1="25"
       x1="11" />
    <linearGradient
       gradientTransform="matrix(1,0,0,0.5,0,38)"
       gradientUnits="userSpaceOnUse"
       xlink:href="#linearGradient4004"
       id="linearGradient4188"
       y2="25"
       x2="16"
       y1="25"
       x1="11" />
    <linearGradient
       gradientTransform="matrix(1,0,0,0.5,0,36)"
       gradientUnits="userSpaceOnUse"
       xlink:href="#linearGradient4004"
       id="linearGradient4190"
       y2="25"
       x2="16"
       y1="25"
       x1="11" />
    <linearGradient
       gradientTransform="matrix(1,0,0,0.5,0,34)"
       gradientUnits="userSpaceOnUse"
       xlink:href="#linearGradient4004"
       id="linearGradient4192"
       y2="25"
       x2="16"
       y1="25"
       x1="11" />
    <linearGradient
       gradientTransform="matrix(1,0,0,0.5,0,32)"
       gradientUnits="userSpaceOnUse"
       xlink:href="#linearGradient4004"
       id="linearGradient4194"
       y2="25"
       x2="16"
       y1="25"
       x1="11" />
    <linearGradient
       gradientTransform="matrix(1,0,0,0.5,0,30)"
       gradientUnits="userSpaceOnUse"
       xlink:href="#linearGradient4004"
       id="linearGradient4196"
       y2="25"
       x2="16"
       y1="25"
       x1="11" />
    <linearGradient
       gradientTransform="matrix(1,0,0,0.5,0,28)"
       gradientUnits="userSpaceOnUse"
       xlink:href="#linearGradient4004"
       id="linearGradient4198"
       y2="25"
       x2="16"
       y1="25"
       x1="11" />
    <linearGradient
       gradientTransform="matrix(1,0,0,0.5,0,26)"
       gradientUnits="userSpaceOnUse"
       xlink:href="#linearGradient4004"
       id="linearGradient4200"
       y2="25"
       x2="16"
       y1="25"
       x1="11" />
    <linearGradient
       gradientTransform="matrix(1,0,0,0.5,0,24)"
       gradientUnits="userSpaceOnUse"
       xlink:href="#linearGradient4004"
       id="linearGradient4202"
       y2="25"
       x2="16"
       y1="25"
       x1="11" />
    <linearGradient
       gradientTransform="matrix(1,0,0,0.5,0,22)"
       gradientUnits="userSpaceOnUse"
       xlink:href="#linearGradient4004"
       id="linearGradient4204"
       y2="25"
       x2="16"
       y1="25"
       x1="11" />
    <linearGradient
       gradientTransform="matrix(1,0,0,0.5,0,20)"
       gradientUnits="userSpaceOnUse"
       xlink:href="#linearGradient4004"
       id="linearGradient4206"
       y2="25"
       x2="16"
       y1="25"
       x1="11" />
    <linearGradient
       gradientTransform="matrix(1,0,0,0.5,0,18)"
       gradientUnits="userSpaceOnUse"
       xlink:href="#linearGradient4004"
       id="linearGradient4208"
       y2="25"
       x2="16"
       y1="25"
       x1="11" />
    <linearGradient
       gradientTransform="matrix(1,0,0,0.5,0,16)"
       gradientUnits="userSpaceOnUse"
       xlink:href="#linearGradient4004"
       id="linearGradient4210"
       y2="25"
       x2="16"
       y1="25"
       x1="11" />
    <linearGradient
       gradientTransform="matrix(1,0,0,0.5,0,14)"
       gradientUnits="userSpaceOnUse"
       xlink:href="#linearGradient4004"
       id="linearGradient4212"
       y2="25"
       x2="16"
       y1="25"
       x1="11" />
    <linearGradient
       gradientTransform="matrix(1,0,0,0.5,0,12)"
       gradientUnits="userSpaceOnUse"
       xlink:href="#linearGradient4004"
       id="linearGradient4214"
       y2="25"
       x2="16"
       y1="25"
       x1="11" />
    <linearGradient
       gradientTransform="matrix(0.8,0,0,1,11.2,-82)"
       gradientUnits="userSpaceOnUse"
       xlink:href="#linearGradient4410"
       id="linearGradient4350"
       y2="25"
       x2="16"
       y1="25"
       x1="11" />
    <linearGradient
       gradientTransform="matrix(0.8,0,0,1,11.2,-86)"
       gradientUnits="userSpaceOnUse"
       xlink:href="#linearGradient4410"
       id="linearGradient4404"
       y2="25"
       x2="16"
       y1="25"
       x1="11" />
    <linearGradient
       gradientTransform="matrix(0.8,0,0,1,11.2,-90)"
       gradientUnits="userSpaceOnUse"
       xlink:href="#linearGradient4410"
       id="linearGradient4408"
       y2="25"
       x2="16"
       y1="25"
       x1="11" />
    <linearGradient
       gradientTransform="matrix(0.8,0,0,1,11.2,-94)"
       gradientUnits="userSpaceOnUse"
       xlink:href="#linearGradient4410"
       id="linearGradient4425"
       y2="25"
       x2="16"
       y1="25"
       x1="11" />
    <linearGradient
       gradientTransform="matrix(0.8,0,0,1,-44.8,-82)"
       gradientUnits="userSpaceOnUse"
       xlink:href="#linearGradient4410"
       id="linearGradient4435"
       y2="25"
       x2="16"
       y1="25"
       x1="11" />
    <linearGradient
       gradientTransform="matrix(0.8,0,0,1,-44.8,-86)"
       gradientUnits="userSpaceOnUse"
       xlink:href="#linearGradient4410"
       id="linearGradient4437"
       y2="25"
       x2="16"
       y1="25"
       x1="11" />
    <linearGradient
       gradientTransform="matrix(0.8,0,0,1,-44.8,-90)"
       gradientUnits="userSpaceOnUse"
       xlink:href="#linearGradient4410"
       id="linearGradient4439"
       y2="25"
       x2="16"
       y1="25"
       x1="11" />
    <linearGradient
       gradientTransform="matrix(0.8,0,0,1,-44.8,-94)"
       gradientUnits="userSpaceOnUse"
       xlink:href="#linearGradient4410"
       id="linearGradient4441"
       y2="25"
       x2="16"
       y1="25"
       x1="11" />
    <linearGradient
       gradientUnits="userSpaceOnUse"
       xlink:href="#linearGradient3971"
       id="linearGradient4449"
       y2="32"
       x2="62"
       y1="25"
       x1="62" />
    <linearGradient
       gradientUnits="userSpaceOnUse"
       xlink:href="#linearGradient4541"
       id="linearGradient4547"
       y2="73.811729"
       x2="52.76535"
       y1="81.843025"
       x1="52.76535" />
    <linearGradient
       gradientUnits="userSpaceOnUse"
       xlink:href="#linearGradient4549"
       id="linearGradient4555"
       y2="80.929214"
       x2="53.611629"
       y1="75.0793"
       x1="53.611629" />
    <linearGradient
       gradientUnits="userSpaceOnUse"
       xlink:href="#linearGradient4549"
       id="linearGradient4617"
       y2="64"
       x2="46"
       y1="70"
       x1="46" />
    <linearGradient
       gradientTransform="translate(6,0)"
       gradientUnits="userSpaceOnUse"
       xlink:href="#linearGradient4549"
       id="linearGradient4621"
       y2="64"
       x2="46"
       y1="70"
       x1="46" />
    <linearGradient
       gradientTransform="translate(12,0)"
       gradientUnits="userSpaceOnUse"
       xlink:href="#linearGradient4549"
       id="linearGradient4625"
       y2="64"
       x2="46"
       y1="70"
       x1="46" />
    <linearGradient
       gradientTransform="translate(18,0)"
       gradientUnits="userSpaceOnUse"
       xlink:href="#linearGradient4549"
       id="linearGradient4629"
       y2="64"
       x2="46"
       y1="70"
       x1="46" />
    <linearGradient
       gradientUnits="userSpaceOnUse"
       xlink:href="#linearGradient4631"
       id="linearGradient4637"
       y2="74"
       x2="40"
       y1="80"
       x1="40" />
    <linearGradient
       gradientUnits="userSpaceOnUse"
       xlink:href="#linearGradient4631"
       id="linearGradient4639"
       y2="74"
       x2="34"
       y1="80"
       x1="34" />
    <linearGradient
       id="linearGradient3894">
      <stop
         offset="0"
         style="stop-color:#f7eb93;stop-opacity:1"
         id="stop3896" />
      <stop
         offset="1"
         style="stop-color:#f7f593;stop-opacity:0"
         id="stop3898" />
    </linearGradient>
    <linearGradient
       id="linearGradient3934">
      <stop
         offset="0"
         style="stop-color:#d24e00;stop-opacity:1"
         id="stop3936" />
      <stop
         offset="1"
         style="stop-color:#ca5e00;stop-opacity:0"
         id="stop3938" />
    </linearGradient>
    <linearGradient
       id="linearGradient3958">
      <stop
         offset="0"
         style="stop-color:#f1a801;stop-opacity:1"
         id="stop3960" />
      <stop
         offset="1"
         style="stop-color:#f17c01;stop-opacity:0"
         id="stop3962" />
    </linearGradient>
    <linearGradient
       id="linearGradient3879">
      <stop
         offset="0"
         style="stop-color:#632e00;stop-opacity:1"
         id="stop3881" />
      <stop
         offset="0.5"
         style="stop-color:#be5800;stop-opacity:0.36470589"
         id="stop3883" />
      <stop
         offset="1"
         style="stop-color:#c25a00;stop-opacity:0"
         id="stop3885" />
    </linearGradient>
    <linearGradient
       id="linearGradient3816">
      <stop
         offset="0"
         style="stop-color:#ffe945;stop-opacity:1"
         id="stop3818" />
      <stop
         offset="0.5"
         style="stop-color:#eed96a;stop-opacity:0.67450982"
         id="stop3824" />
      <stop
         offset="1"
         style="stop-color:#e49531;stop-opacity:0"
         id="stop3820" />
    </linearGradient>
    <linearGradient
       id="linearGradient3828">
      <stop
         offset="0"
         style="stop-color:#fbeda2;stop-opacity:1"
         id="stop3830" />
      <stop
         offset="1"
         style="stop-color:#fbe4a2;stop-opacity:0"
         id="stop3832" />
    </linearGradient>
    <linearGradient
       id="linearGradient3860">
      <stop
         offset="0"
         style="stop-color:#8e4900;stop-opacity:1"
         id="stop3862" />
      <stop
         offset="0.5"
         style="stop-color:#d25800;stop-opacity:0.36470589"
         id="stop3868" />
      <stop
         offset="1"
         style="stop-color:#ae5900;stop-opacity:0"
         id="stop3864" />
    </linearGradient>
    <linearGradient
       id="linearGradient3798">
      <stop
         offset="0"
         style="stop-color:#ffcc0a;stop-opacity:1"
         id="stop3800" />
      <stop
         offset="1"
         style="stop-color:#d38900;stop-opacity:0"
         id="stop3802" />
    </linearGradient>
    <filter
       id="filter3810"
       style="color-interpolation-filters:sRGB">
      <feGaussianBlur
         stdDeviation="0.42"
         id="feGaussianBlur3812" />
    </filter>
    <radialGradient
       gradientTransform="matrix(1.2626263,-0.2104377,0.09520749,0.57124497,-39.365519,28.764811)"
       gradientUnits="userSpaceOnUse"
       xlink:href="#linearGradient3798"
       id="radialGradient3402"
       fy="24.63372"
       fx="61"
       r="19.007999"
       cy="24.63372"
       cx="61" />
    <radialGradient
       gradientTransform="matrix(3.3630994,-0.59089075,0.30096298,1.7129535,-130.78914,8.680567)"
       gradientUnits="userSpaceOnUse"
       xlink:href="#linearGradient4298"
       id="radialGradient3404"
       fy="36.95731"
       fx="41.752941"
       r="19"
       cy="36.95731"
       cx="41.752941" />
    <linearGradient
       gradientTransform="translate(-21,9)"
       gradientUnits="userSpaceOnUse"
       xlink:href="#linearGradient3860"
       id="linearGradient3406"
       y2="37"
       x2="77"
       y1="37"
       x1="80" />
    <linearGradient
       gradientTransform="translate(-21,9)"
       gradientUnits="userSpaceOnUse"
       xlink:href="#linearGradient3828"
       id="linearGradient3408"
       y2="8.0840635"
       x2="51.631207"
       y1="10"
       x1="52" />
    <radialGradient
       gradientTransform="matrix(3.3729562,-0.5317483,0.18746453,1.1891145,-92.604806,22.442362)"
       gradientUnits="userSpaceOnUse"
       xlink:href="#linearGradient3816"
       id="radialGradient3410"
       fy="39.106094"
       fx="40.284538"
       r="19"
       cy="39.106094"
       cx="40.284538" />
    <radialGradient
       gradientTransform="matrix(2.6666667,-6.9565204e-8,8.0000011e-7,30.666677,-97.666707,-1471.0032)"
       gradientUnits="userSpaceOnUse"
       xlink:href="#linearGradient3879"
       id="radialGradient3412"
       fy="50.608784"
       fx="46"
       r="1.5"
       cy="50.608784"
       cx="46" />
    <radialGradient
       gradientTransform="matrix(1.1597853,-0.1400901,0.07244171,0.58349276,-11.414104,33.34065)"
       gradientUnits="userSpaceOnUse"
       xlink:href="#linearGradient3958"
       id="radialGradient3414"
       fy="69.843796"
       fx="39.768967"
       r="11"
       cy="69.843796"
       cx="39.768967" />
    <linearGradient
       gradientTransform="translate(-21,6)"
       gradientUnits="userSpaceOnUse"
       xlink:href="#linearGradient3934"
       id="linearGradient3416"
       y2="62.967953"
       x2="41.884232"
       y1="70"
       x1="40" />
    <linearGradient
       gradientTransform="translate(-21,6)"
       gradientUnits="userSpaceOnUse"
       xlink:href="#linearGradient3934"
       id="linearGradient3418"
       y2="64"
       x2="42"
       y1="69"
       x1="40" />
    <linearGradient
       gradientTransform="translate(-21,9)"
       gradientUnits="userSpaceOnUse"
       xlink:href="#linearGradient3894"
       id="linearGradient3420"
       y2="70"
       x2="36"
       y1="61"
       x1="31" />
    <radialGradient
       gradientTransform="matrix(1.1597853,-0.1400901,0.07244171,0.58349276,-11.414104,33.34065)"
       gradientUnits="userSpaceOnUse"
       xlink:href="#linearGradient3958"
       id="radialGradient3422"
       fy="69.843796"
       fx="39.768967"
       r="11"
       cy="69.843796"
       cx="39.768967" />
    <linearGradient
       gradientTransform="translate(13,1)"
       gradientUnits="userSpaceOnUse"
       xlink:href="#linearGradient3934"
       id="linearGradient3424"
       y2="62.967953"
       x2="41.884232"
       y1="70"
       x1="40" />
    <linearGradient
       gradientTransform="translate(13,1)"
       gradientUnits="userSpaceOnUse"
       xlink:href="#linearGradient3934"
       id="linearGradient3426"
       y2="64"
       x2="42"
       y1="69"
       x1="40" />
    <linearGradient
       gradientTransform="translate(13,4)"
       gradientUnits="userSpaceOnUse"
       xlink:href="#linearGradient3894"
       id="linearGradient3428"
       y2="70"
       x2="36"
       y1="61"
       x1="31" />
    <linearGradient
       gradientTransform="matrix(1.1946531,0,0,1.1946531,-17.360136,92.471755)"
       gradientUnits="userSpaceOnUse"
       xlink:href="#linearGradient3277"
       id="linearGradient3153"
       y2="22.02951"
       x2="75.404488"
       y1="83.017471"
       x1="70.782135" />
    <linearGradient
       id="linearGradient3277">
      <stop
         offset="0"
         style="stop-color:#333333;stop-opacity:1"
         id="stop3279" />
      <stop
         offset="1"
         style="stop-color:#515151;stop-opacity:1"
         id="stop3281" />
    </linearGradient>
    <radialGradient
       gradientTransform="matrix(0.9847961,0.02597927,-0.01823822,0.6913564,1.9937062,24.820256)"
       gradientUnits="userSpaceOnUse"
       xlink:href="#linearGradient3266"
       id="radialGradient3155"
       fy="75.263962"
       fx="40.846539"
       r="14.672466"
       cy="75.263962"
       cx="40.846539" />
    <linearGradient
       id="linearGradient3266">
      <stop
         offset="0"
         style="stop-color:#ffffff;stop-opacity:1"
         id="stop2807" />
      <stop
         offset="1"
         style="stop-color:#000000;stop-opacity:0"
         id="stop2809" />
    </linearGradient>
    <filter
       id="filter3832"
       style="color-interpolation-filters:sRGB">
      <feGaussianBlur
         stdDeviation="0.7690217"
         id="feGaussianBlur3834" />
    </filter>
  </defs>
  <sodipodi:namedview
     id="base"
     pagecolor="#ffffff"
     bordercolor="#666666"
     borderopacity="1.0"
     inkscape:pageopacity="0.0"
     inkscape:pageshadow="2"
     inkscape:zoom="2.8"
     inkscape:cx="63.594403"
     inkscape:cy="40.624463"
     inkscape:document-units="px"
     inkscape:current-layer="layer1"
     showgrid="false"
     fit-margin-top="0"
     fit-margin-left="0"
     fit-margin-right="0"
     fit-margin-bottom="0"
     inkscape:window-width="1920"
     inkscape:window-height="1056"
     inkscape:window-x="0"
     inkscape:window-y="24"
     inkscape:window-maximized="1" />
  <metadata
     id="metadata7">
    <rdf:RDF>
      <cc:Work
         rdf:about="">
        <dc:format>image/svg+xml</dc:format>
        <dc:type
           rdf:resource="http://purl.org/dc/dcmitype/StillImage" />
        <dc:title />
      </cc:Work>
    </rdf:RDF>
  </metadata>
  <g
     inkscape:label="Ebene 1"
     inkscape:groupmode="layer"
     id="layer1"
     transform="translate(-198.60413,-491.57648)">
    <g
       id="g4334" />
    <path
       style="fill:#000000"
       d="m 240.35716,543.57648 c -1.5808,-1.65 -3.60709,-3 -4.50287,-3 l -1.62869,0 -9.11318,-9.29286 -9.11318,-9.29285 -0.69639,-2.95715 c -0.38301,-1.62643 -2.18819,-4.53214 -4.0115,-6.45714 -1.82331,-1.925 -3.81123,-4.625 -4.41759,-6 -0.60636,-1.375 -1.69556,-3.52937 -2.42044,-4.78749 -0.72488,-1.25811 -2.33749,-3.37272 -3.58358,-4.69912 l -2.26561,-2.41163 0.59513,-1.55088 c 0.32732,-0.85298 1.21451,-1.55088 1.97153,-1.55088 0.75702,0 2.19088,0.9 3.18637,2 0.99549,1.1 2.34549,2 3,2 0.65451,0 2.00451,0.9 3,2 0.99549,1.1 2.5489,2 3.45204,2 0.90313,0 3.39972,1.8 5.54796,4 l 3.9059,4 2.84193,0 2.84193,0 9.52256,9.21221 9.52256,9.21221 0.54355,2.71775 c 0.29896,1.49476 1.61861,3.7277 2.93256,4.9621 l 2.38901,2.24436 0,2.73679 0,2.73679 -3.07673,2.5889 -3.07672,2.58889 -2.23618,0 -2.23619,0 -2.87418,-3 z m 8.4357,1.0609 1.4357,-0.90847 -1.30815,-1.57622 c -0.71948,-0.86691 -1.90148,-1.57621 -2.62668,-1.57621 -0.72519,0 -1.57155,0.40939 -1.8808,0.90976 -0.30924,0.50036 -0.28765,1.62536 0.048,2.5 0.33563,0.87463 1.12459,1.58335 1.75325,1.57493 0.62865,-0.008 1.78907,-0.42413 2.57871,-0.92379 z m -9.4357,-7.0609 c -1.56981,-1.63853 -3.07919,-2.75414 -3.3542,-2.47914 -0.27499,0.275 0.78439,1.84061 2.3542,3.47914 1.56981,1.63853 3.07919,2.75414 3.35419,2.47914 0.275,-0.275 -0.78438,-1.84061 -2.35419,-3.47914 z m 11.5,2.55902 c 0,-0.24254 -0.51953,-0.76207 -1.15451,-1.15451 l -1.15451,-0.71353 0.71353,1.15451 c 0.39244,0.63498 0.91197,1.15451 1.15451,1.15451 0.24254,0 0.44098,-0.19844 0.44098,-0.44098 z m -5,-1.05902 c 0,-0.275 -0.225,-0.5 -0.5,-0.5 -0.275,0 -0.5,0.225 -0.5,0.5 0,0.275 0.225,0.5 0.5,0.5 0.275,0 0.5,-0.225 0.5,-0.5 z m 2,-2 c 0,-0.275 -0.225,-0.5 -0.5,-0.5 -0.275,0 -0.5,0.225 -0.5,0.5 0,0.275 0.225,0.5 0.5,0.5 0.275,0 0.5,-0.225 0.5,-0.5 z m -1.5857,-5.58945 c -1.53366,-1.6008 -3.35273,-2.91055 -4.04237,-2.91055 -0.68965,0 -1.55461,0.48657 -1.92215,1.08126 l -0.66826,1.08126 2.7552,2.87581 2.7552,2.87581 1.95543,-1.04652 1.95544,-1.04652 -2.78849,-2.91055 z m 4.5857,4.58945 c 0,-0.275 -0.225,-0.5 -0.5,-0.5 -0.275,0 -0.5,0.225 -0.5,0.5 0,0.275 0.225,0.5 0.5,0.5 0.275,0 0.5,-0.225 0.5,-0.5 z m -11.85069,-6.60632 2.95804,-2.10631 2.48596,0.47522 2.48596,0.47522 -0.36675,-1.11891 c -0.20172,-0.61539 -1.53296,-1.25776 -2.95831,-1.42747 l -2.59155,-0.30858 -3.33133,3.02926 c -1.83223,1.6661 -2.9508,3.04245 -2.4857,3.05858 0.4651,0.0161 2.17675,-0.91853 3.80368,-2.07701 z m 0.7288,-3.79719 1.37812,-0.87288 -0.68713,-1.11181 c -0.37792,-0.61149 -1.22308,-1.10491 -1.87812,-1.09649 -0.65504,0.008 -1.81113,0.40811 -2.56909,0.8882 l -1.37812,0.87288 0.68713,1.11181 c 0.37792,0.61149 1.22308,1.10491 1.87812,1.09649 0.65504,-0.008 1.81113,-0.40811 2.56909,-0.8882 z m -3.58346,-3.34649 1.67691,-1.25 -5.15303,-5.32289 -5.15305,-5.3229 -1.88989,0.49422 -1.88989,0.49422 1.17959,-1.42132 1.1796,-1.42133 -0.93132,0 c -0.51222,0 -1.80482,0.64695 -2.87244,1.43766 l -1.94113,1.43766 4.98062,5.08083 4.98062,5.08083 1.21845,-0.46756 1.21845,-0.46757 -0.55606,1.44908 -0.55606,1.44907 1.41586,0 c 0.77872,0 2.17047,-0.5625 3.09277,-1.25 z m -1.96132,-2.41667 c 0.36667,-0.36666 0.96667,-0.36666 1.33334,0 0.36666,0.36667 0.0667,0.66667 -0.66667,0.66667 -0.73333,0 -1.03333,-0.3 -0.66667,-0.66667 z m -12.33333,-7.83333 c 0,-0.275 0.225,-0.5 0.5,-0.5 0.275,0 0.5,0.225 0.5,0.5 0,0.275 -0.225,0.5 -0.5,0.5 -0.275,0 -0.5,-0.225 -0.5,-0.5 z m -1,-2.40404 c 0,-0.37954 -1.76825,-2.41672 -3.92945,-4.52707 l -3.92946,-3.83701 -1.74417,0.6693 -1.74416,0.6693 4.30249,4.38392 4.30249,4.38392 1.37113,-0.52615 c 0.75412,-0.28938 1.37113,-0.83668 1.37113,-1.21621 z m 2,-1.40887 c 0,-0.1721 -1.4625,-1.6346 -3.25,-3.25 l -3.25,-2.93709 2.93709,3.25 c 1.6154,1.7875 3.0779,3.25 3.25,3.25 0.1721,0 0.31291,-0.14081 0.31291,-0.31291 z m -12.07389,-9.27612 c -0.64405,-0.77603 -1.86064,-1.41097 -2.70354,-1.41097 l -1.53255,0 1.78864,1.97642 c 0.98375,1.08703 2.20034,1.72197 2.70354,1.41097 l 0.91492,-0.56545 -1.17101,-1.41097 z m -6.42056,-4.40484 c -0.99854,-1.10337 -2.27422,-2.00613 -2.83485,-2.00613 -0.56063,0 0.0359,1.12323 1.3256,2.49606 1.2897,1.37283 2.56539,2.27559 2.83485,2.00613 0.26945,-0.26946 -0.32706,-1.39269 -1.3256,-2.49606 z"
       id="path4419"
       inkscape:connector-curvature="0" />
  </g>
</svg>
